# xmcd
#
# Track frame offsets:
#       150
#       10887
#       21125
#       37725
#       49995
#       64200
#       78205
#       99987
#       114540
#       138380
#       154492
#       166035
#       182205
#       194650
#       209005
#       220542
#       234305
#       250532
#
# Disc length: 3527 seconds
#
# Revision: 2
# Processed by: cddbd v1.4PL0 Copyright (c) Steve Scherf et al.
# Submitted via: CD-DA_X-Tractor v0.21
#
DISCID=ee0dc512
DTITLE=Various Artist - Country's Finest 2
DYEAR=1900
DGENRE=
TTITLE0=Rose Marie - Slim Whitman
TTITLE1=King of the road - Tennessee Ernie Ford
TTITLE2=More like the movies - Dr Hook
TTITLE3=Let your love flow - Del Reeves and Billy Jo Spears
TTITLE4=Billy Dale - Asleep at the Wheel featuring Dolly Parton
TTITLE5=Under the gun - Suzy Bogguss
TTITLE6=Everthing that glitters (is not gold) - Dan Seals
TTITLE7=American boy - Eddie Rabbitt
TTITLE8=America, I believe in you  Charlie Daniels
TTITLE9=I take my comfort in you  Pirates of the Mississippi
TTITLE10=Born to follow rodeo - Chris Ledoux
TTITLE11=Someones's number one - Larry Gatlin
TTITLE12=Somethin' bout you baby I like - Glen Campbell and Rita Coolidge
TTITLE13=High Noon - Tex Ritter
TTITLE14=Don't it make your brown eyes blue - Crystal Gayle
TTITLE15=The Jamestown ferry - Tanya Tucker
TTITLE16=Black Coffee - Lacy J Dalton
TTITLE17=All I have to do is dream - Juice Newton
EXTD=
EXTT0=
EXTT1=
EXTT2=
EXTT3=
EXTT4=
EXTT5=
EXTT6=
EXTT7=
EXTT8=
EXTT9=
EXTT10=
EXTT11=
EXTT12=
EXTT13=
EXTT14=
EXTT15=
EXTT16=
EXTT17=
PLAYORDER=
